<?xml version="1.0" standalone="no"?>
<!DOCTYPE svg PUBLIC "-//W3C//DTD SVG 20010904//EN"
 "http://www.w3.org/TR/2001/REC-SVG-20010904/DTD/svg10.dtd">
<svg version="1.0" xmlns="http://www.w3.org/2000/svg"
 width="432.000000pt" height="216.000000pt" viewBox="0 0 432.000000 216.000000"
 preserveAspectRatio="xMidYMid meet">
<metadata>
Created by potrace 1.16, written by Peter Selinger 2001-2019
</metadata>
<g transform="translate(0.000000,216.000000) scale(0.100000,-0.100000)"
fill="#000000" stroke="none">
<path d="M358 2098 c-21 -18 -27 -39 -17 -66 7 -18 15 -22 44 -20 29 2 35 6
35 25 0 18 -5 23 -22 22 -18 -1 -19 -2 -5 -6 26 -7 15 -28 -14 -28 -19 0 -25
6 -27 28 -4 32 21 46 49 28 11 -6 19 -7 19 -1 0 8 -31 30 -42 30 -2 0 -11 -6
-20 -12z"/>
<path d="M463 2103 c-25 -9 -14 -41 18 -52 17 -6 28 -15 24 -21 -8 -13 -42
-13 -48 0 -3 6 -4 5 -3 -2 2 -7 16 -13 32 -13 42 0 45 32 5 46 -41 14 -41 33
0 25 27 -5 30 -4 19 9 -13 15 -25 17 -47 8z"/>
<path d="M543 2103 c-25 -9 -14 -41 18 -52 17 -6 28 -15 24 -21 -8 -13 -42
-13 -48 0 -3 6 -4 5 -3 -2 2 -7 16 -13 32 -13 42 0 45 32 5 46 -41 14 -41 33
0 25 27 -5 30 -4 19 9 -13 15 -25 17 -47 8z"/>
<path d="M621 2083 c0 -11 3 -13 6 -5 7 17 33 15 33 -3 0 -9 -7 -18 -15 -21
-9 -4 -20 -15 -26 -25 -9 -17 -6 -19 28 -18 35 1 36 2 10 8 l-29 6 26 22 c30
26 25 53 -10 53 -16 0 -24 -5 -23 -17z"/>
<path d="M691 2078 c-18 -48 26 -91 49 -49 6 11 8 32 4 46 -8 32 -41 34 -53 3z
m39 -23 c0 -24 -5 -35 -15 -35 -10 0 -15 11 -15 35 0 24 5 35 15 35 10 0 15
-11 15 -35z"/>
<path d="M779 2096 c-8 -9 3 -86 12 -86 5 0 9 20 9 45 0 40 -7 54 -21 41z"/>
<path d="M838 2066 c-5 -46 0 -56 27 -56 27 0 32 10 27 56 -3 28 -9 34 -27 34
-18 0 -24 -6 -27 -34z m42 14 c0 -5 -7 -10 -15 -10 -8 0 -15 5 -15 10 0 6 7
10 15 10 8 0 15 -4 15 -10z m0 -45 c0 -8 -7 -15 -15 -15 -8 0 -15 7 -15 15 0
8 7 15 15 15 8 0 15 -7 15 -15z"/>
<path d="M330 1681 c0 -190 -3 -251 -12 -254 -10 -4 -10 -6 0 -6 18 -1 18
-327 -1 -334 -9 -4 -9 -6 1 -6 9 -1 12 -42 12 -170 0 -126 -3 -171 -12 -174
-10 -4 -10 -6 0 -6 18 -1 18 -337 -1 -344 -9 -4 -9 -6 1 -6 7 -1 12 -15 12
-36 l0 -35 54 0 c34 0 56 -5 59 -12 4 -10 6 -10 6 0 1 18 397 18 404 0 4 -10
6 -10 6 0 1 9 47 12 195 12 146 0 196 -3 199 -12 4 -10 6 -10 6 0 1 9 47 12
196 12 149 0 195 -3 195 -12 0 -10 2 -10 8 -1 5 8 48 13 132 15 l125 3 3 808
2 807 -795 0 -795 0 0 -249z m1578 162 l-3 -78 -782 -3 -783 -2 0 80 0 80 785
0 786 0 -3 -77z m0 -805 l-3 -713 -782 -3 -783 -2 0 715 0 715 785 0 785 0 -2
-712z"/>
<path d="M1290 1865 c-6 -8 -10 -20 -7 -27 4 -8 6 -7 6 4 1 27 20 31 30 6 7
-15 10 -17 10 -7 1 26 -24 42 -39 24z"/>
<path d="M919 1866 c-3 -4 -4 -18 -1 -31 3 -17 8 -23 16 -16 6 5 20 11 31 14
16 4 14 5 -7 6 -16 1 -28 8 -30 17 -2 9 -6 13 -9 10z"/>
<path d="M1109 1843 c-2 -24 -2 -25 -6 -5 -3 12 -12 22 -21 22 -13 0 -14 -2
-4 -9 11 -7 10 -9 -3 -15 -23 -8 -9 -26 21 -26 20 0 24 5 24 30 0 38 -10 40
-11 3z"/>
<path d="M948 1853 c7 -3 16 -2 19 1 4 3 -2 6 -13 5 -11 0 -14 -3 -6 -6z"/>
<path d="M991 1833 l1 -28 7 25 8 25 5 -25 c5 -23 5 -23 7 -2 0 12 5 22 10 22
5 0 12 -10 14 -22 4 -20 4 -19 6 5 1 24 -3 27 -29 27 -26 0 -30 -3 -29 -27z"/>
<path d="M1148 1853 c7 -3 16 -2 19 1 4 3 -2 6 -13 5 -11 0 -14 -3 -6 -6z"/>
<path d="M1132 1828 c3 -7 13 -14 24 -15 18 -3 18 -2 -1 6 -19 8 -18 9 5 13
24 5 24 5 -3 7 -19 1 -27 -3 -25 -11z"/>
<path d="M1210 1830 c0 -5 9 -10 21 -10 11 0 17 5 14 10 -3 6 -13 10 -21 10
-8 0 -14 -4 -14 -10z"/>
<path d="M948 1813 c7 -3 16 -2 19 1 4 3 -2 6 -13 5 -11 0 -14 -3 -6 -6z"/>
<path d="M1298 1813 c7 -3 16 -2 19 1 4 3 -2 6 -13 5 -11 0 -14 -3 -6 -6z"/>
<path d="M1669 1056 c-2 -3 -93 -7 -201 -10 -108 -3 -214 -8 -235 -11 -21 -3
-175 -12 -343 -20 -443 -21 -480 -25 -480 -41 0 -11 12 -13 52 -9 49 5 294 17
608 31 69 2 193 9 275 14 83 5 218 12 300 15 165 7 195 11 195 25 0 10 -162
15 -171 6z"/>
<path d="M1960 1120 l0 -810 54 0 c34 0 56 -5 59 -12 4 -10 6 -10 6 0 1 9 48
12 200 12 150 0 201 -3 204 -12 4 -10 6 -10 6 0 1 9 47 12 195 12 146 0 196
-3 199 -12 4 -10 6 -10 6 0 1 9 47 12 196 12 149 0 195 -3 195 -12 0 -10 2
-10 8 -1 5 8 48 13 132 15 l125 3 3 808 2 807 -795 0 -795 0 0 -810z m1578
723 l-3 -78 -782 -3 -783 -2 0 80 0 80 785 0 786 0 -3 -77z m0 -805 l-3 -713
-782 -3 -783 -2 0 715 0 715 785 0 785 0 -2 -712z"/>
<path d="M2547 1863 c-2 -5 -1 -19 4 -33 7 -23 7 -23 8 8 1 31 -3 40 -12 25z"/>
<path d="M2739 1843 c-2 -24 -2 -25 -6 -5 -3 12 -12 22 -21 22 -15 0 -15 -2
-2 -10 13 -9 13 -10 0 -10 -13 0 -13 -1 0 -10 11 -7 12 -10 2 -10 -8 0 -16 9
-19 20 -4 14 -14 20 -34 20 -25 0 -29 -4 -28 -27 l1 -28 7 25 8 25 5 -25 c5
-23 5 -23 7 -2 1 26 21 30 21 4 0 -13 9 -19 35 -20 33 -2 35 -1 35 28 0 38
-10 40 -11 3z"/>
<path d="M2932 1840 c0 -19 2 -27 5 -17 2 9 2 25 0 35 -3 9 -5 1 -5 -18z"/>
<path d="M2588 1853 c7 -3 16 -2 19 1 4 3 -2 6 -13 5 -11 0 -14 -3 -6 -6z"/>
<path d="M2778 1853 c7 -3 16 -2 19 1 4 3 -2 6 -13 5 -11 0 -14 -3 -6 -6z"/>
<path d="M2572 1828 c3 -7 13 -14 24 -15 18 -3 18 -2 -1 6 -19 8 -18 9 5 13
24 5 24 5 -3 7 -19 1 -27 -3 -25 -11z"/>
<path d="M2762 1828 c3 -7 13 -14 24 -15 18 -3 18 -2 -1 6 -19 8 -18 9 5 13
24 5 24 5 -3 7 -19 1 -27 -3 -25 -11z"/>
<path d="M2850 1830 c0 -5 9 -10 21 -10 11 0 17 5 14 10 -3 6 -13 10 -21 10
-8 0 -14 -4 -14 -10z"/>
<path d="M2475 720 c-236 -4 -431 -7 -432 -8 -2 -1 -3 -7 -3 -13 0 -8 190 -9
683 -5 375 4 697 9 715 12 17 3 32 9 32 14 0 11 -253 10 -995 0z"/>
<path d="M70 1560 c-11 -8 -7 -9 15 -4 37 8 45 14 19 14 -10 0 -26 -5 -34 -10z"/>
<path d="M57 1524 c-4 -4 -7 -18 -7 -31 0 -20 5 -23 41 -23 38 0 40 1 37 28
-2 22 -9 28 -33 30 -17 2 -34 0 -38 -4z m61 -26 c3 -14 -3 -18 -27 -18 -29 0
-41 17 -24 34 13 13 48 1 51 -16z"/>
<path d="M89 1436 c-14 -31 -34 -35 -26 -6 3 11 1 20 -5 20 -16 0 -4 -45 13
-48 11 -2 19 6 23 22 8 34 30 34 24 1 -3 -14 -1 -25 4 -25 14 0 5 53 -9 58 -7
2 -18 -8 -24 -22z"/>
<path d="M83 1373 c28 -3 37 -9 37 -23 0 -14 -9 -20 -32 -23 -33 -4 -33 -4 2
-3 30 1 35 4 35 26 0 22 -4 25 -40 26 l-40 1 38 -4z"/>
<path d="M3772 1320 c1 -28 3 -34 5 -17 2 15 8 27 13 27 5 0 11 -12 13 -27 4
-26 4 -26 6 5 1 22 -4 32 -13 32 -8 0 -17 6 -19 13 -3 6 -5 -8 -5 -33z"/>
<path d="M3861 1320 c0 -32 2 -40 9 -29 5 9 6 28 0 45 -8 27 -8 26 -9 -16z"/>
<path d="M3910 1350 c0 -5 -7 -10 -15 -10 -8 0 -15 -4 -15 -10 0 -5 7 -7 15
-4 11 4 15 0 15 -16 0 -16 -4 -20 -15 -16 -8 3 -15 1 -15 -4 0 -6 11 -10 25
-10 23 0 25 4 25 40 0 22 -4 40 -10 40 -5 0 -10 -4 -10 -10z"/>
<path d="M3716 1325 c-8 -23 4 -45 25 -45 10 0 19 4 19 9 0 5 -8 8 -17 7 -10
0 -18 6 -18 14 0 8 8 14 17 14 10 -1 15 2 12 7 -8 14 -31 10 -38 -6z"/>
<path d="M3832 1310 c0 -19 2 -27 5 -17 2 9 2 25 0 35 -3 9 -5 1 -5 -18z"/>
<path d="M3940 1325 c0 -9 8 -19 17 -22 15 -6 15 -7 -3 -14 -17 -7 -17 -8 4
-8 13 -1 22 5 22 14 0 8 -7 15 -15 15 -8 0 -15 5 -15 11 0 6 7 8 16 5 8 -3 12
-2 9 4 -10 16 -35 12 -35 -5z"/>
<path d="M64 1265 c-19 -15 -19 -15 0 -30 20 -15 20 -15 0 -30 -19 -15 -19
-15 1 -31 19 -14 19 -16 3 -25 -23 -13 -23 -26 0 -38 44 -24 83 16 45 45 -17
13 -17 13 0 14 9 0 17 7 17 16 0 9 -8 23 -17 30 -17 13 -17 13 0 14 22 0 23
36 1 44 -23 9 -28 8 -50 -9z m56 -15 c0 -5 -13 -10 -30 -10 -16 0 -30 5 -30
10 0 6 14 10 30 10 17 0 30 -4 30 -10z m0 -60 c0 -5 -13 -10 -30 -10 -16 0
-30 5 -30 10 0 6 14 10 30 10 17 0 30 -4 30 -10z m0 -60 c0 -5 -13 -10 -30
-10 -16 0 -30 5 -30 10 0 6 14 10 30 10 17 0 30 -4 30 -10z"/>
<path d="M4107 1163 c-12 -12 -7 -33 7 -33 8 0 18 -5 22 -11 5 -8 -1 -10 -19
-7 -15 3 -24 1 -21 -3 7 -12 41 -11 49 1 3 5 -3 15 -15 22 -23 15 -27 33 -4
24 8 -3 12 -2 9 4 -7 12 -19 13 -28 3z"/>
<path d="M4160 1136 c0 -30 4 -36 20 -36 40 0 36 60 -4 68 -12 3 -16 -4 -16
-32z m38 -4 c2 -15 -2 -22 -12 -22 -11 0 -16 9 -16 26 0 31 23 28 28 -4z"/>
<path d="M4032 1130 c0 -19 2 -27 5 -17 2 9 2 25 0 35 -3 9 -5 1 -5 -18z"/>
<path d="M3948 1123 c6 -2 18 -2 25 0 6 3 1 5 -13 5 -14 0 -19 -2 -12 -5z"/>
<path d="M222 1080 c0 -19 2 -27 5 -17 2 9 2 25 0 35 -3 9 -5 1 -5 -18z"/>
<path d="M54 1062 c5 -8 76 -4 76 4 0 2 -18 4 -41 4 -22 0 -38 -4 -35 -8z"/>
<path d="M3941 965 c0 -35 2 -37 11 -19 7 15 7 28 -1 40 -9 16 -10 12 -10 -21z"/>
<path d="M70 970 c0 -16 6 -20 33 -19 30 2 30 2 5 6 -16 2 -28 8 -28 13 0 5
12 11 28 13 25 4 25 4 -5 6 -27 1 -33 -3 -33 -19z"/>
<path d="M3986 963 c10 -40 14 -41 14 -5 0 18 -5 32 -10 32 -6 0 -8 -11 -4
-27z"/>
<path d="M4028 973 c7 -3 16 -2 19 1 4 3 -2 6 -13 5 -11 0 -14 -3 -6 -6z"/>
<path d="M4080 970 c13 -9 13 -10 0 -11 -8 -1 -28 0 -44 1 -32 2 -33 -23 0
-27 18 -3 18 -2 -1 6 -19 9 -19 10 2 10 12 1 25 -3 28 -9 3 -5 14 -10 24 -10
14 0 17 6 13 25 -2 15 -11 25 -21 25 -14 0 -14 -2 -1 -10z"/>
<path d="M4124 965 c-3 -8 -4 -20 -1 -27 3 -7 6 -3 6 9 1 12 7 24 14 26 9 4 9
6 -1 6 -7 1 -15 -6 -18 -14z"/>
<path d="M3967 953 c-4 -3 -7 -11 -7 -17 0 -6 5 -5 12 2 6 6 9 14 7 17 -3 3
-9 2 -12 -2z"/>
<path d="M4151 944 c0 -11 3 -14 6 -6 3 7 2 16 -1 19 -3 4 -6 -2 -5 -13z"/>
<path d="M83 933 c9 -2 25 -2 35 0 9 3 1 5 -18 5 -19 0 -27 -2 -17 -5z"/>
<path d="M83 893 c9 -2 25 -2 35 0 9 3 1 5 -18 5 -19 0 -27 -2 -17 -5z"/>
<path d="M80 840 c-13 -8 -13 -13 -1 -32 10 -16 10 -23 2 -26 -6 -2 -11 -19
-11 -38 0 -32 2 -34 33 -33 30 2 30 2 5 6 -16 2 -28 8 -28 13 0 5 12 11 28 13
l27 4 -27 2 c-35 1 -37 21 -3 21 26 0 34 15 13 23 -10 4 -10 6 0 6 6 1 12 11
11 24 0 21 -1 21 -9 2 -7 -16 -9 -17 -9 -3 -1 22 -13 29 -31 18z m20 -20 c0
-5 -4 -10 -10 -10 -5 0 -10 5 -10 10 0 6 5 10 10 10 6 0 10 -4 10 -10z"/>
<path d="M4107 813 c-12 -12 -7 -33 7 -33 8 0 18 -5 22 -11 5 -8 -1 -10 -19
-7 -15 3 -24 1 -21 -3 7 -12 41 -11 49 1 3 5 -3 15 -15 22 -23 15 -27 33 -4
24 8 -3 12 -2 9 4 -7 12 -19 13 -28 3z"/>
<path d="M4160 786 c0 -30 4 -36 20 -36 40 0 36 60 -4 68 -12 3 -16 -4 -16
-32z m38 -4 c2 -15 -2 -22 -12 -22 -11 0 -16 9 -16 26 0 31 23 28 28 -4z"/>
<path d="M4032 780 c0 -19 2 -27 5 -17 2 9 2 25 0 35 -3 9 -5 1 -5 -18z"/>
<path d="M3720 785 c0 -12 14 -15 70 -15 56 0 70 3 70 15 0 12 -14 15 -70 15
-56 0 -70 -3 -70 -15z"/>
<path d="M3946 782 c-2 -4 -1 -14 3 -21 6 -10 10 -9 14 3 6 16 -8 32 -17 18z"/>
<path d="M208 703 c7 -3 16 -2 19 1 4 3 -2 6 -13 5 -11 0 -14 -3 -6 -6z"/>
<path d="M83 693 c-18 -7 -16 -40 2 -47 22 -8 45 4 45 24 0 14 -23 34 -33 29
-1 0 -8 -3 -14 -6z m33 -14 c10 -17 -13 -36 -27 -22 -12 12 -4 33 11 33 5 0
12 -5 16 -11z"/>
<path d="M77 623 c-21 -20 8 -48 38 -37 16 6 21 44 6 44 -5 0 -8 -8 -7 -17 0
-10 -6 -18 -14 -18 -8 0 -14 8 -14 18 2 19 1 20 -9 10z"/>
<path d="M70 550 c0 -16 6 -20 33 -19 30 2 30 2 5 6 -16 2 -28 8 -28 13 0 5
12 11 28 13 25 4 25 4 -5 6 -27 1 -33 -3 -33 -19z"/>
<path d="M83 513 c9 -2 25 -2 35 0 9 3 1 5 -18 5 -19 0 -27 -2 -17 -5z"/>
<path d="M832 240 c0 -19 2 -27 5 -17 2 9 2 25 0 35 -3 9 -5 1 -5 -18z"/>
<path d="M2462 240 c0 -19 2 -27 5 -17 2 9 2 25 0 35 -3 9 -5 1 -5 -18z"/>
<path d="M1628 243 c7 -3 16 -2 19 1 4 3 -2 6 -13 5 -11 0 -14 -3 -6 -6z"/>
<path d="M3258 243 c7 -3 16 -2 19 1 4 3 -2 6 -13 5 -11 0 -14 -3 -6 -6z"/>
<path d="M418 213 c7 -3 16 -2 19 1 4 3 -2 6 -13 5 -11 0 -14 -3 -6 -6z"/>
<path d="M2048 213 c7 -3 16 -2 19 1 4 3 -2 6 -13 5 -11 0 -14 -3 -6 -6z"/>
<path d="M1860 130 c0 -5 7 -7 15 -4 10 4 15 0 15 -15 0 -12 -5 -21 -11 -21
-5 0 -7 5 -3 11 4 7 2 10 -5 8 -23 -8 -16 -24 10 -27 23 -3 25 0 21 27 -3 22
-10 31 -23 31 -11 0 -19 -4 -19 -10z"/>
<path d="M1917 125 c-9 -22 2 -45 22 -46 12 0 12 -2 -4 -9 -19 -8 -19 -9 3 -9
21 -1 23 3 20 36 -3 40 -30 58 -41 28z m33 -15 c0 -11 -4 -20 -9 -20 -14 0
-23 18 -16 30 10 17 25 11 25 -10z"/>
<path d="M1981 126 c-16 -19 -3 -46 23 -45 20 0 20 1 2 8 -19 7 -19 8 2 13 15
4 20 11 16 22 -8 20 -28 21 -43 2z m29 -6 c0 -5 -4 -10 -10 -10 -5 0 -10 5
-10 10 0 6 5 10 10 10 6 0 10 -4 10 -10z"/>
</g>
</svg>
